<?xml version="1.0" encoding="utf-8" standalone="no"?>
<svg version="1.1" xmlns="http://www.w3.org/2000/svg" viewBox="-4 -7 8 7" fill="white" stroke="black" stroke-width="0.35">
	<line x1="-1.32" y1="-0.358" x2="-1.32" y2="-1.299"/>
	<line x1="1.278" y1="0.429" x2="1.278" y2="-1.214"/>
	<line x1="0.593" y1="-0.824" x2="0.593" y2="-1.149"/>
	<line x1="-0.581" y1="0.839" x2="-0.581" y2="-1.192"/>
	<line x1="-0.014" y1="0.006" x2="-0.014" y2="-1.157"/>
	<path d="M0.203,-1.147 c0.186,0.006,0.972,0.029,1.928,-0.276 c0.686,-0.219,1.196,-0.474,1.474,-0.94 c0.451,-0.753,0.182,-1.3,-0.044,-1.754 C3.173,-4.9,2.565,-5.289,2.116,-5.53 C0.369,-6.471,-1.393,-5.824,-1.798,-5.66 C-2.31,-5.454,-2.911,-5.201,-3.349,-4.524 c-0.136,0.21,-0.609,0.941,-0.437,1.656 C-3.403,-1.283,-0.184,-1.162,0.203,-1.147 z"/>
</svg>
