<?xml version="1.0" encoding="utf-8" standalone="no"?>
<svg version="1.1" xmlns="http://www.w3.org/2000/svg" viewBox="-4 -7 8 7" fill="white" stroke="black" stroke-width="0.35">
	<path d="M2.5,-2.62 c-0.15,-0.36,-0.48,-0.69,-0.88,-0.79 C1.06,-3.56,0.86,-3.61,-0.06,-3.46 C-0.96,-3.32,-1.24,-3.21,-1.78,-2.88 C-2.03,-2.72,-2.6,-2.27,-2.62,-1.79 c-0.02,0.46,0.57,0.74,0.91,0.92 C-1.55,-0.79,-0.93,-0.52,0.01,-0.46 c0.57,0.03,1.59,0.1,2.18,-0.62 C2.23,-1.12,2.81,-1.85,2.5,-2.62 z"/>
	<line x1="-0.99" y1="0" x2="-0.99" y2="-0.62"/>
	<line x1="0.57" y1="0.58" x2="0.57" y2="-0.44"/>
	<line x1="0.94" y1="-0.21" x2="0.94" y2="-0.47"/>
	<line x1="-0.39" y1="0.36" x2="-0.39" y2="-0.5"/>
	<line x1="0.02" y1="-0.1" x2="0.02" y2="-0.46"/>
</svg>
