<?xml version="1.0" encoding="utf-8" standalone="no"?>
<svg version="1.1" xmlns="http://www.w3.org/2000/svg" viewBox="-4 -7 8 7" fill="white" stroke="black" stroke-width="0.35">
	<path d="M3.57,-3.747 c-0.213,-0.52,-0.683,-0.98,-1.258,-1.132 C1.515,-5.09,1.225,-5.153,-0.092,-4.945 C-1.377,-4.743,-1.767,-4.584,-2.537,-4.11 C-2.901,-3.886,-3.719,-3.238,-3.746,-2.555 c-0.026,0.66,0.814,1.06,1.306,1.31 C-2.208,-1.128,-1.323,-0.74,0.02,-0.658 c0.81,0.05,2.277,0.139,3.116,-0.88 C3.183,-1.595,4.02,-2.646,3.57,-3.747 z"/>
	<line x1="-1.414" y1="0" x2="-1.414" y2="-0.88"/>
	<line x1="0.817" y1="0.823" x2="0.817" y2="-0.632"/>
	<line x1="1.348" y1="-0.294" x2="1.348" y2="-0.666"/>
	<line x1="-0.553" y1="0.516" x2="-0.553" y2="-0.714"/>
	<line x1="0.034" y1="-0.141" x2="0.034" y2="-0.658"/>
</svg>
