<?xml version="1.0" encoding="utf-8" standalone="no"?>
<svg version="1.1" xmlns="http://www.w3.org/2000/svg" viewBox="-4 -7 8 7" fill="white" stroke="black" stroke-width="0.35">
	<line x1="-0.92" y1="-0.25" x2="-0.92" y2="-0.91"/>
	<line x1="0.89" y1="0.3" x2="0.89" y2="-0.85"/>
	<line x1="0.42" y1="-0.58" x2="0.42" y2="-0.8"/>
	<line x1="-0.41" y1="0.59" x2="-0.41" y2="-0.83"/>
	<line x1="-0.01" y1="0" x2="-0.01" y2="-0.81"/>
	<path d="M0.14,-0.8 c0.13,0,0.68,0.02,1.35,-0.19 c0.48,-0.15,0.84,-0.33,1.03,-0.66 c0.32,-0.53,0.13,-0.91,-0.03,-1.23 C2.22,-3.43,1.8,-3.7,1.48,-3.87 C0.26,-4.53,-0.98,-4.08,-1.26,-3.96 C-1.62,-3.82,-2.04,-3.64,-2.34,-3.17 c-0.1,0.15,-0.43,0.66,-0.31,1.16 C-2.38,-0.9,-0.13,-0.81,0.14,-0.8 z"/>
</svg>
