<?xml version="1.0" encoding="utf-8" standalone="no"?>
<svg version="1.1" xmlns="http://www.w3.org/2000/svg" viewBox="-3 -7 6 7" fill="white" stroke="black" stroke-width="0.35">
	<path fill="none" d="M0.342,0 C-0.198,-1.186,-0.429,-2.255,-0.351,-3.207"/>
	<path d="M0.52,-5.407 C0.448,-5.031,0.415,-4.651,0.436,-4.296 c0.844,-0.076,1.581,0.19,2.222,0.759 c-0.765,-0.14,-1.496,-0.177,-2.17,-0.046 c0.223,0.543,0.303,1.26,0.314,2.062 C0.407,-2.2,-0.007,-2.82,-0.456,-3.327 C-1.063,-3.074,-1.751,-2.655,-2.483,-2.146 C-2.151,-2.83,-1.715,-3.433,-1.091,-3.883 c-0.394,-0.33,-0.943,-0.529,-1.567,-0.665 c0.74,-0.243,1.454,-0.286,2.118,0.066 C-0.258,-4.849,0.093,-5.159,0.52,-5.407 z"/>
</svg>
