<?xml version="1.0" encoding="utf-8" standalone="no"?>
<svg version="1.1" xmlns="http://www.w3.org/2000/svg" viewBox="-3 -7 6 7" fill="white" stroke="black" stroke-width="0.35">
	<path d="M0.3,0 C-0.2,-0.9,-0.3,-1.8,-0.3,-2.6"/>
	<path d="M0.4,-4.3 c0,0.3,0,0.6,-0.1,0.9 C1,-3.6,1.7,-3.4,2.1,-2.8 C1.5,-2.9,1,-2.9,0.4,-2.9 c0.3,0.5,0.3,1,0.2,1.7 c-0.4,-0.5,-0.8,-1,-1,-1.4 C-0.8,-2.4,-1.4,-2,-2,-1.7 c0.2,-0.6,0.6,-1.1,1.1,-1.4 C-1.3,-3.4,-1.6,-3.5,-2.1,-3.6 c0.6,-0.3,1.2,-0.3,1.7,0 C-0.3,-3.9,0,-4.2,0.4,-4.3 z"/>
</svg>
