<?xml version="1.0" encoding="utf-8" standalone="no"?>
<svg version="1.1" xmlns="http://www.w3.org/2000/svg" viewBox="-3 -7 6 7" fill="white" stroke="black" stroke-width="0.35">
	<path fill="none" d="M0,0 c0.501,-1.147,0.782,-2.301,0.426,-3.648"/>
	<path d="M2.964,-3.229 c-0.737,-0.444,-1.518,-0.758,-2.37,-0.863 c-0.26,0.635,-0.486,1.4,-0.699,2.219 c-0.2,-0.802,-0.356,-1.586,-0.373,-2.271 C-1.241,-4.128,-2.046,-3.891,-2.876,-3.517 c0.569,-0.685,1.273,-1.155,2.139,-1.364 C-0.853,-5.234,-1.148,-5.566,-1.521,-5.889 c0.7,0.027,1.291,0.195,1.695,0.605 C0.68,-5.623,1.31,-5.778,2.089,-5.711 c-0.444,0.24,-0.812,0.542,-1.092,0.915 C1.787,-4.533,2.432,-3.99,2.964,-3.229 z"/>
</svg>
