<?xml version="1.0" encoding="utf-8" standalone="no"?>
<svg version="1.1" xmlns="http://www.w3.org/2000/svg" viewBox="-3 -7 6 7" fill="white" stroke="black" stroke-width="0.35">
	<path d="M0,0 c0.4,-0.9,0.6,-1.3,0.3,-2.4"/>
	<path d="M2.4,-2.1 C1.7,-2.3,1.2,-2.5,0.5,-2.8 C0.3,-2.2,0.2,-1.6,-0.1,-1 C-0.3,-1.6,-0.4,-2.2,-0.4,-2.8 C-1,-2.6,-1.6,-2.4,-2.3,-2.3 c0.4,-0.6,1,-1,1.7,-1.1 C-0.7,-3.7,-0.9,-3.9,-1.2,-4.2 c0.6,-0.1,1,0.1,1.4,0.5 c0.4,-0.4,0.9,-0.4,1.5,-0.3 C1.3,-3.8,1.1,-3.6,0.8,-3.3 C1.5,-3.1,2,-2.7,2.4,-2.1 z"/>
</svg>
