<?xml version="1.0" encoding="utf-8" standalone="no"?>
<svg version="1.1" xmlns="http://www.w3.org/2000/svg" viewBox="-2.5 -5 5 5" fill="white" stroke="black" stroke-width="0.35">
	<path fill="none" d="M0.14,-2.48 c0,0,-0.38,0.59,-0.28,0.7 c0.09,0.11,0.54,0.61,0.45,0.72 C0.22,-0.95,-0.09,-0.58,-0.09,-0.43 c0,0.15,-0,0.27,-0,0.43"/>
	<path fill="none" d="M-0.74,-1.01 c0,0,0.08,0.34,0.21,0.41 C-0.41,-0.52,-0.09,-0.57,-0.09,-0.43"/>
	<path fill="none" d="M-0.62,-1.79 c0,0,0.4,-0.09,0.48,0"/>
	<path fill="none" d="M1,-1.85 c0,0,-0.03,0.43,-0.12,0.54 c-0.08,0.1,-0.48,0.13,-0.57,0.25"/>
</svg>
