<?xml version="1.0" encoding="utf-8" standalone="no"?>
<svg version="1.1" xmlns="http://www.w3.org/2000/svg" viewBox="-2.5 -5 5 5" fill="white" stroke="black" stroke-width="0.35">
	<path fill="none" d="M-1.323,-3.455 c0,0,-0.205,0.952,-0.121,1.239 s0.543,0.678,0.82,0.783 s0.939,0.281,0.848,0.55 S0,-0.279,0,0"/>
	<path fill="none" d="M2.059,-2.812 c0,0,0.099,0.579,-0.102,0.801 c-0.201,0.222,-0.731,0.16,-0.923,0.345 C0.842,-1.481,0.3,-1.103,0.224,-0.883"/>
	<path fill="none" d="M-1.23,-1.116 c0,0,0.333,-0.413,0.606,-0.317"/>
	<path fill="none" d="M0.298,-3.026 c0,0,-0.035,0.546,0.093,0.727 c0.128,0.181,0.838,0.444,0.643,0.633"/>
</svg>
