<?xml version="1.0" encoding="utf-8" standalone="no"?>
<svg version="1.1" xmlns="http://www.w3.org/2000/svg" viewBox="-2.5 -5 5 5" fill="white" stroke="black" stroke-width="0.35">
	<path fill="none" d="M0.24,-4.137 c0,0,-0.631,0.978,-0.475,1.16 c0.156,0.182,0.904,1.014,0.754,1.202 C0.369,-1.587,-0.158,-0.962,-0.158,-0.72 c0,0.242,-0.007,0.446,-0.007,0.72"/>
	<path fill="none" d="M-1.241,-1.678 c0,0,0.141,0.563,0.352,0.684 C-0.678,-0.873,-0.158,-0.957,-0.158,-0.72"/>
	<path fill="none" d="M-1.039,-2.977 c0,0,0.67,-0.154,0.804,0"/>
	<path fill="none" d="M1.672,-3.089 c0,0,-0.055,0.724,-0.195,0.894 c-0.14,0.17,-0.8,0.223,-0.958,0.42"/>
</svg>
