<?xml version="1.0" encoding="utf-8" standalone="no"?>
<svg version="1.1" xmlns="http://www.w3.org/2000/svg" viewBox="-2.5 -5 5 5" fill="white" stroke="black" stroke-width="0.35">
	<path fill="none" d="M-0.79,-2.07 c0,0,-0.12,0.57,-0.07,0.74 s0.33,0.41,0.49,0.47 s0.56,0.17,0.51,0.33 S0,-0.17,0,0"/>
	<path fill="none" d="M1.24,-1.69 c0,0,0.06,0.35,-0.06,0.48 c-0.12,0.13,-0.44,0.1,-0.55,0.21 C0.51,-0.89,0.18,-0.66,0.13,-0.53"/>
	<path fill="none" d="M-0.74,-0.67 c0,0,0.2,-0.25,0.36,-0.19"/>
	<path fill="none" d="M0.18,-1.82 c0,0,-0.02,0.33,0.06,0.44 c0.08,0.11,0.5,0.27,0.39,0.38"/>
</svg>
