<?xml version="1.0" encoding="utf-8" standalone="no"?>
<svg version="1.1" xmlns="http://www.w3.org/2000/svg" viewBox="-2.5 -9 5 9" fill="white" stroke="black" stroke-width="0.35">
	<path d="M0,-7.101 c0.121,0.005,0.379,0.065,0.8,0.8 c0.511,0.894,0.655,1.726,0.7,2 c0.531,3.24,0.412,3.953,0.2,4.5 c-0.285,0.735,-0.646,0.933,-0.8,1 c-0.299,0.129,-0.626,0.11,-0.8,0.1 c-0.189,-0.011,-0.482,-0.031,-0.8,-0.2 c-0.41,-0.218,-0.616,-0.559,-0.7,-0.7 c-0.498,-0.831,-0.136,-1.902,0,-4.1 c0.069,-1.117,0.035,-1.796,0.5,-2.6 C-0.763,-6.537,-0.426,-7.12,0,-7.101 z"/>
</svg>
